HIERARCHY
ROOT root
{
	OFFSET	0	13.1	24.9
	CHANNELS 6  Xposition Yposition Zposition Xrotation Yrotation Zrotation
	JOINT spine_1
	{
		OFFSET	0	9.99999	0
		CHANNELS 3  Xrotation Yrotation Zrotation
		JOINT spine_2
		{
			OFFSET	0	112	-10
			CHANNELS 3  Xrotation Yrotation Zrotation
			JOINT spine_3
			{
				OFFSET	0	206.5	19.3
				CHANNELS 3  Xrotation Yrotation Zrotation
				JOINT spine_4
				{
					OFFSET	0	110.4	14.6
					CHANNELS 3  Xrotation Yrotation Zrotation
					JOINT neck_1
					{
						OFFSET	0	71.8	-50.3
						CHANNELS 3  Xrotation Yrotation Zrotation
						JOINT neck_2
						{
							OFFSET	0	86.2	-25.8
							CHANNELS 3  Xrotation Yrotation Zrotation
							JOINT head_ee
							{
								OFFSET	0	179.8	-8.7
								CHANNELS 3  Xrotation Yrotation Zrotation
								End Site
								{
									OFFSET	1	0	0
								}
							}
						}
					}
					JOINT left_clavicle
					{
						OFFSET	-43.2	22.4	-70.8
						CHANNELS 3  Xrotation Yrotation Zrotation
						JOINT left_shoulder
						{
							OFFSET	-93.9	-5.79999	48.7
							CHANNELS 3  Xrotation Yrotation Zrotation
							JOINT left_elbow
							{
								OFFSET	-291.4	-30.8	15.2
								CHANNELS 3  Xrotation Yrotation Zrotation
								JOINT left_lowarm_twist
								{
									OFFSET	-110.7	-3.89999	13.6
									CHANNELS 3  Xrotation Yrotation Zrotation
									JOINT left_hand
									{
										OFFSET	-110.7	-3.89999	13.6
										CHANNELS 3  Xrotation Yrotation Zrotation
										JOINT left_ee
										{
											OFFSET	-80.8	-5.10001	12.1
											CHANNELS 3  Xrotation Yrotation Zrotation
											End Site
											{
												OFFSET	1	0	0
											}
										}
									}
								}
							}
						}
					}
					JOINT right_clavicle
					{
						OFFSET	43.2	22.4	-70.8
						CHANNELS 3  Xrotation Yrotation Zrotation
						JOINT right_shoulder
						{
							OFFSET	93.9	-5.79999	48.7
							CHANNELS 3  Xrotation Yrotation Zrotation
							JOINT right_elbow
							{
								OFFSET	291.4	-30.8	15.2
								CHANNELS 3  Xrotation Yrotation Zrotation
								JOINT right_lowarm_twist
								{
									OFFSET	110.7	-3.89999	13.6
									CHANNELS 3  Xrotation Yrotation Zrotation
									JOINT right_hand
									{
										OFFSET	110.7	-3.89999	13.6
										CHANNELS 3  Xrotation Yrotation Zrotation
										JOINT right_ee
										{
											OFFSET	80.8	-5.10001	12.1
											CHANNELS 3  Xrotation Yrotation Zrotation
											End Site
											{
												OFFSET	1	0	0
											}
										}
									}
								}
							}
						}
					}
				}
			}
		}
	}
	JOINT left_hip
	{
		OFFSET	-82.8	-127.5	0.300001
		CHANNELS 3  Xrotation Yrotation Zrotation
		JOINT left_knee
		{
			OFFSET	-28.2	-396.7	2.2
			CHANNELS 3  Xrotation Yrotation Zrotation
			JOINT left_ankle
			{
				OFFSET	-11.7	-411.3	35.4
				CHANNELS 3  Xrotation Yrotation Zrotation
				JOINT left_toes
				{
					OFFSET	0	-60	-88.6
					CHANNELS 3  Xrotation Yrotation Zrotation
					JOINT left_foot_ee
					{
						OFFSET	-22.5	-16.5	-42.2
						CHANNELS 3  Xrotation Yrotation Zrotation
						End Site
						{
							OFFSET	1	0	0
						}
					}
				}
			}
		}
	}
	JOINT right_hip
	{
		OFFSET	82.8	-127.5	0.300001
		CHANNELS 3  Xrotation Yrotation Zrotation
		JOINT right_knee
		{
			OFFSET	28.2	-396.7	2.2
			CHANNELS 3  Xrotation Yrotation Zrotation
			JOINT right_ankle
			{
				OFFSET	11.7	-411.3	35.4
				CHANNELS 3  Xrotation Yrotation Zrotation
				JOINT right_toes
				{
					OFFSET	0	-60	-88.6
					CHANNELS 3  Xrotation Yrotation Zrotation
					JOINT right_foot_ee
					{
						OFFSET	22.5	-16.5	-42.2
						CHANNELS 3  Xrotation Yrotation Zrotation
						End Site
						{
							OFFSET	1	0	0
						}
					}
				}
			}
		}
	}
}
MOTION
Frames: 5
Frame Time: 0.02
873.294701924 603.346 -1612.98697555 169.475295652 55.3511219165 -167.763175068 -1.69074 0.106037 0.674486 -1.69049 0.062904 0.679866 -1.68949 -0.101347 0.675207 -1.69013 0.00655843 0.682739 -22.0656 -7.58931 -7.38092 -22.1112 -11.1759 -10.2736 -0.0 0.0 -0.0 3.421 -27.9879 4.22489 -7.01292 -52.1551 50.252 0.487194 -13.5686 0.0579593 -7.85208 -0.341915 0.94301 2.26168 30.0499 24.4976 -0.0 0.0 -0.0 5.68068 6.10621 -10.7975 -24.3942 7.77209 -72.1942 0.768497 20.8413 -0.141334 -11.9672 0.571906 -1.4164 -1.98335 28.262 25.1845 0.0 0.0 0.0 -2.01259 -49.2397 -1.00504 1.22379 -0.0523256 -0.180501 24.3388 -2.11797 -3.29263 -39.8601 0.0 0.0 -0.0 0.0 -0.0 -0.806142 -6.4364 -4.41481 -24.6005 -0.212736 -3.74025 15.8229 -12.2501 2.20773 39.3179 -0.0 -0.0 0.0 0.0 0.0 
862.389464662 606.838 -1610.28348831 168.671881532 57.4130474217 -166.458333636 -1.65925 0.192808 0.568867 -1.65908 0.15622 0.579983 -1.65729 0.0134734 0.600501 -1.65777 0.108141 0.590838 -21.0178 -7.34968 -9.08723 -20.9206 -9.73873 -11.5955 -0.0 0.0 -0.0 3.80652 -25.2006 5.35237 -5.87356 -50.4371 49.1897 0.544121 -15.0853 0.0720472 -12.4918 -0.603659 1.47554 1.36854 29.8666 19.2474 -0.0 0.0 -0.0 5.60365 6.55116 -10.6203 -24.0328 8.33005 -72.4991 0.6747 18.4811 -0.109769 -13.4597 0.663666 -1.5839 -1.74636 28.3329 23.576 0.0 0.0 0.0 -3.41735 -49.236 -1.92596 1.7114 -0.0742482 -0.252108 24.4784 -1.19608 -3.30123 -40.269 0.0 0.0 -0.0 0.0 -0.0 0.00877274 -6.42328 -3.62131 -24.3345 -0.21906 -3.69992 18.9076 -7.25822 2.59438 39.0318 -0.0 -0.0 0.0 0.0 0.0 
844.935841001 604.787 -1606.54465108 166.589518802 60.036580003 -163.745643404 -1.70713 0.270118 0.430064 -1.70706 0.242205 0.44638 -1.70503 0.12842 0.491351 -1.70531 0.204407 0.464904 -18.8414 -7.63857 -10.8861 -18.6002 -8.97219 -13.1171 -0.0 0.0 -0.0 4.32578 -22.9014 6.7076 -3.00494 -48.9386 47.7315 0.616196 -16.9747 0.0919528 -16.719 -0.879073 1.94112 0.631665 28.8821 14.8076 -0.0 0.0 -0.0 5.46372 7.06788 -10.3087 -23.9398 9.11381 -72.9827 0.513233 14.2649 -0.064222 -15.0808 0.768253 -1.76308 -1.44552 28.4677 21.5763 0.0 0.0 0.0 -7.53116 -48.9247 -4.47469 2.3572 -0.104222 -0.346662 24.5733 -2.5701 -3.3243 -40.4385 0.0 0.0 -0.0 0.0 -0.0 1.34371 -6.33362 -2.40854 -22.7599 -0.252658 -3.46064 22.2158 -1.33629 3.01583 38.0343 -0.0 -0.0 0.0 0.0 0.0 
837.153225934 600.702 -1607.67264831 165.479939664 61.906532175 -162.551627156 -1.75977 0.340235 0.499993 -1.75968 0.307731 0.520629 -1.75668 0.173768 0.579272 -1.75705 0.263071 0.54456 -19.1834 -7.21789 -11.2228 -18.9046 -8.05468 -13.2969 -0.0 0.0 -0.0 4.4237 -20.7661 7.12166 -1.61175 -48.4932 47.1344 0.743221 -20.2122 0.132471 -19.9738 -1.11418 2.28519 -0.185841 29.3546 10.4527 -0.0 0.0 -0.0 5.21081 7.29303 -9.77679 -23.8353 9.34824 -73.1007 0.554211 15.3519 -0.0746959 -16.7349 0.880169 -1.94283 -1.35141 28.4471 20.9334 0.0 0.0 0.0 -8.47403 -47.476 -4.79712 2.57977 -0.114799 -0.379172 27.8878 -2.86144 -3.70576 -40.1974 0.0 0.0 -0.0 0.0 -0.0 1.42577 -6.34092 -1.78984 -19.0536 -0.305699 -2.8945 17.4972 -1.57986 2.42797 36.485 -0.0 -0.0 0.0 0.0 0.0 
834.027766952 598.45 -1611.60382645 165.592648597 62.8007906085 -162.611846929 -1.6649 0.523959 0.401016 -1.66494 0.49738 0.433544 -1.66105 0.379685 0.539617 -1.66117 0.460142 0.472882 -19.4908 -6.46396 -10.0686 -19.2688 -7.26036 -11.962 -0.0 0.0 -0.0 4.60321 -21.5672 7.43554 0.121913 -48.5791 46.5373 0.815413 -21.9952 0.158467 -21.1336 -1.20265 2.40452 -0.344966 28.9858 9.45219 -0.0 0.0 -0.0 5.17465 7.36139 -9.69881 -24.5224 10.0267 -73.2682 0.59288 16.3674 -0.085264 -16.3799 0.855712 -1.90452 -1.30219 28.4855 20.6161 0.0 0.0 0.0 -9.17773 -46.735 -5.43449 4.0291 -0.186764 -0.589857 26.1576 -1.21241 -3.49549 -40.0815 0.0 0.0 -0.0 0.0 -0.0 1.51227 -15.8798 0.377811 -12.5462 -0.309975 -1.89662 12.2081 0.376639 1.73899 36.5347 -0.0 -0.0 0.0 0.0 0.0 
